<svg width="1440" height="148" viewBox="0 0 1440 148" fill="none" xmlns="http://www.w3.org/2000/svg">
<g clip-path="url(#clip0_101_46)">
<rect width="1440" height="148" fill="white"/>
<rect width="1440" height="148" fill="#1F1F1F"/>
<rect x="546" y="29" width="200" height="83" fill="#D9D9D9"/>
<rect x="746" y="29" width="148" height="83" fill="#5BDF0A"/>
<g filter="url(#filter0_d_101_46)">
<path d="M588.945 54.6328C593.805 54.6328 597.648 56.2188 600.477 59.3906C603.305 62.5625 604.719 66.4609 604.719 71.0859C604.719 75.7266 603.305 79.6328 600.477 82.8047C597.648 85.9766 593.805 87.5625 588.945 87.5625C584.086 87.5625 580.242 85.9766 577.414 82.8047C574.586 79.6328 573.172 75.7266 573.172 71.0859C573.172 66.4609 574.586 62.5625 577.414 59.3906C580.242 56.2188 584.086 54.6328 588.945 54.6328ZM588.945 56.7656C585.008 56.7656 582.031 58.2734 580.016 61.2891C578 64.2891 576.992 67.5547 576.992 71.0859C576.992 74.6172 578 77.8906 580.016 80.9062C582.031 83.9219 585.008 85.4297 588.945 85.4297C592.883 85.4297 595.859 83.9219 597.875 80.9062C599.891 77.8906 600.898 74.6172 600.898 71.0859C600.898 67.5547 599.891 64.2891 597.875 61.2891C595.859 58.2734 592.883 56.7656 588.945 56.7656ZM612.556 87.5625C611.275 87.5625 610.634 87.2031 610.634 86.4844V64.6406C610.634 63.9219 611.275 63.5625 612.556 63.5625C613.822 63.5625 614.455 63.9219 614.455 64.6406V67.2422C615.58 64.7891 617.627 63.5625 620.595 63.5625C622.345 63.5625 623.861 63.9844 625.142 64.8281C625.455 65.0312 625.611 65.2812 625.611 65.5781C625.611 65.9375 625.4 66.2734 624.978 66.5859C624.65 66.8203 624.283 66.9375 623.877 66.9375C623.33 66.9375 622.822 66.7422 622.353 66.3516C621.884 65.9453 621.142 65.7422 620.127 65.7422C617.892 65.7422 616.384 66.8125 615.603 68.9531C614.838 71.0938 614.455 73.0938 614.455 74.9531V86.4844C614.455 87.2031 613.822 87.5625 612.556 87.5625ZM651.612 86.2969C651.612 89.8438 650.409 92.4219 648.003 94.0312C645.612 95.6562 642.808 96.4688 639.589 96.4688C637.761 96.4688 635.761 96.1562 633.589 95.5312C631.433 94.9062 629.823 93.8125 628.761 92.25C628.667 92.1094 628.62 91.9766 628.62 91.8516C628.62 91.1641 629.269 90.8203 630.566 90.8203C631.409 90.8203 631.995 91.0469 632.323 91.5C633.042 92.5469 634.128 93.2812 635.581 93.7031C637.034 94.125 638.378 94.3359 639.612 94.3359C645.081 94.3359 647.816 91.6562 647.816 86.2969V84.0703C646.097 86.3828 643.534 87.5391 640.128 87.5391C636.55 87.5391 633.73 86.3906 631.667 84.0938C629.62 81.7812 628.597 78.9297 628.597 75.5391C628.597 72.1328 629.62 69.2812 631.667 66.9844C633.73 64.6875 636.55 63.5391 640.128 63.5391C643.472 63.5391 646.034 64.7266 647.816 67.1016L647.839 64.6172C647.839 63.8984 648.472 63.5391 649.737 63.5391C650.987 63.5391 651.612 63.8984 651.612 64.6172V86.2969ZM640.128 85.4062C642.737 85.4062 644.675 84.3281 645.941 82.1719C647.206 80.0156 647.839 77.8047 647.839 75.5391C647.839 73.2578 647.206 71.0469 645.941 68.9062C644.675 66.75 642.737 65.6719 640.128 65.6719C637.534 65.6719 635.597 66.75 634.316 68.9062C633.05 71.0469 632.417 73.2578 632.417 75.5391C632.417 77.8047 633.05 80.0156 634.316 82.1719C635.597 84.3281 637.534 85.4062 640.128 85.4062ZM679.794 87.5625C677.966 87.5625 676.755 86.4453 676.161 84.2109C674.192 86.4453 671.286 87.5625 667.442 87.5625C665.083 87.5625 663.059 87.0859 661.372 86.1328C659.2 84.9297 658.114 83.1719 658.114 80.8594C658.114 79.1875 658.583 77.8438 659.52 76.8281C660.473 75.7969 661.723 75.1406 663.27 74.8594C664.833 74.5625 666.372 74.4141 667.887 74.4141C668.387 74.4141 668.95 74.4297 669.575 74.4609C670.216 74.4922 670.864 74.5078 671.52 74.5078C673.473 74.5078 674.864 74.25 675.692 73.7344V71.3672C675.692 67.5859 673.505 65.6953 669.13 65.6953C667.489 65.6953 666.036 66.1094 664.77 66.9375C663.333 67.875 662.614 69 662.614 70.3125C662.614 71.0312 661.981 71.3906 660.716 71.3906C659.45 71.3906 658.817 71.0312 658.817 70.3125C658.848 68.4844 659.864 66.8984 661.864 65.5547C663.848 64.2266 666.27 63.5625 669.13 63.5625C671.552 63.5625 673.887 64.1562 676.137 65.3438C678.387 66.5312 679.512 68.5391 679.512 71.3672V81.6562C679.512 82.8125 679.661 83.7266 679.958 84.3984C680.239 84.9922 680.645 85.4453 681.177 85.7578C681.52 85.9609 681.692 86.2031 681.692 86.4844C681.692 87.2031 681.059 87.5625 679.794 87.5625ZM667.442 85.4297C669.286 85.4297 671.122 84.875 672.95 83.7656C674.778 82.6562 675.692 81.0625 675.692 78.9844V76.3125C674.677 76.5312 673.45 76.6406 672.012 76.6406C671.294 76.6406 670.575 76.625 669.856 76.5938C669.137 76.5469 668.419 76.5234 667.7 76.5234C666.762 76.5078 665.786 76.6016 664.77 76.8047C663.755 76.9922 662.989 77.5469 662.473 78.4688C662.083 79.1562 661.887 79.9297 661.887 80.7891C661.919 82.3047 662.473 83.4688 663.552 84.2812C664.52 85.0469 665.817 85.4297 667.442 85.4297ZM706.662 87.5859C705.397 87.5859 704.764 87.2266 704.764 86.5078V74.0859C704.764 72.0391 704.209 70.1406 703.1 68.3906C702.006 66.625 700.311 65.7422 698.014 65.7422C693.233 65.7422 690.842 68.75 690.842 74.7656V86.5078C690.842 87.2266 690.209 87.5859 688.944 87.5859C687.662 87.5859 687.022 87.2266 687.022 86.5078V64.6406C687.022 63.9219 687.662 63.5625 688.944 63.5625C690.209 63.5625 690.842 63.9219 690.842 64.6406V67.2891C692.233 64.7891 694.733 63.5391 698.342 63.5391C700.842 63.5234 703.17 64.4062 705.327 66.1875C707.498 67.9531 708.584 70.5859 708.584 74.0859V86.5078C708.584 87.2266 707.944 87.5859 706.662 87.5859ZM726.805 63.5625C730.414 63.5625 733.367 64.6719 735.664 66.8906C737.961 69.1094 739.109 72 739.109 75.5625C739.109 79.125 737.961 82.0156 735.664 84.2344C733.367 86.4531 730.414 87.5625 726.805 87.5625C723.195 87.5625 720.242 86.4531 717.945 84.2344C715.648 82.0156 714.5 79.125 714.5 75.5625C714.5 72 715.648 69.1094 717.945 66.8906C720.242 64.6719 723.195 63.5625 726.805 63.5625ZM726.805 65.6953C724.07 65.6953 721.969 66.7188 720.5 68.7656C719.047 70.8125 718.32 73.0781 718.32 75.5625C718.32 78.0469 719.047 80.3125 720.5 82.3594C721.969 84.4062 724.07 85.4297 726.805 85.4297C729.539 85.4297 731.633 84.4062 733.086 82.3594C734.555 80.3125 735.289 78.0469 735.289 75.5625C735.289 73.0781 734.555 70.8125 733.086 68.7656C731.633 66.7188 729.539 65.6953 726.805 65.6953Z" fill="black"/>
<path d="M790.9 87.75C789.212 87.75 788.369 87.2812 788.369 86.3438V69.6875C788.369 67.0417 787.775 64.5521 786.587 62.2188C785.4 59.8646 783.285 58.6875 780.244 58.6875C777.223 58.6875 775.129 59.875 773.962 62.25C772.796 64.6042 772.212 67.0833 772.212 69.6875V86.3438C772.212 87.2812 771.358 87.75 769.65 87.75C767.962 87.75 767.119 87.2812 767.119 86.3438V69.6875C767.119 67.0417 766.546 64.5521 765.4 62.2188C764.254 59.8646 762.15 58.6875 759.087 58.6875C756.067 58.6875 753.942 60.0104 752.712 62.6562C751.504 65.2812 750.9 67.9583 750.9 70.6875V86.3125C750.9 87.2708 750.056 87.75 748.369 87.75C746.66 87.75 745.806 87.2708 745.806 86.3125V57.1562C745.806 56.2188 746.66 55.75 748.369 55.75C750.056 55.75 750.9 56.2188 750.9 57.1562V60.5938C752.671 57.3646 755.733 55.75 760.087 55.75C764.379 55.75 767.692 57.4896 770.025 60.9688C772.108 57.4896 775.525 55.75 780.275 55.75C789.067 55.75 793.462 60.3958 793.462 69.6875V86.3438C793.462 87.2812 792.608 87.75 790.9 87.75ZM831.069 87.75C828.631 87.75 827.017 86.2604 826.225 83.2812C823.6 86.2604 819.725 87.75 814.6 87.75C811.454 87.75 808.756 87.1146 806.506 85.8438C803.61 84.2396 802.163 81.8958 802.163 78.8125C802.163 76.5833 802.788 74.7917 804.038 73.4375C805.308 72.0625 806.975 71.1875 809.038 70.8125C811.121 70.4167 813.173 70.2188 815.194 70.2188C815.86 70.2188 816.61 70.2396 817.444 70.2812C818.298 70.3229 819.163 70.3438 820.038 70.3438C822.642 70.3438 824.496 70 825.6 69.3125V66.1562C825.6 61.1146 822.683 58.5938 816.85 58.5938C814.663 58.5938 812.725 59.1458 811.038 60.25C809.121 61.5 808.163 63 808.163 64.75C808.163 65.7083 807.319 66.1875 805.631 66.1875C803.944 66.1875 803.1 65.7083 803.1 64.75C803.142 62.3125 804.496 60.1979 807.163 58.4062C809.808 56.6354 813.038 55.75 816.85 55.75C820.079 55.75 823.194 56.5417 826.194 58.125C829.194 59.7083 830.694 62.3854 830.694 66.1562V79.875C830.694 81.4167 830.892 82.6354 831.288 83.5312C831.663 84.3229 832.204 84.9271 832.913 85.3438C833.371 85.6146 833.6 85.9375 833.6 86.3125C833.6 87.2708 832.756 87.75 831.069 87.75ZM814.6 84.9062C817.058 84.9062 819.506 84.1667 821.944 82.6875C824.381 81.2083 825.6 79.0833 825.6 76.3125V72.75C824.246 73.0417 822.61 73.1875 820.694 73.1875C819.735 73.1875 818.777 73.1667 817.819 73.125C816.86 73.0625 815.902 73.0312 814.944 73.0312C813.694 73.0104 812.392 73.1354 811.038 73.4062C809.683 73.6562 808.663 74.3958 807.975 75.625C807.454 76.5417 807.194 77.5729 807.194 78.7188C807.235 80.7396 807.975 82.2917 809.413 83.375C810.704 84.3958 812.433 84.9062 814.6 84.9062ZM840.394 87.75C840.123 87.75 839.779 87.6979 839.362 87.5938C838.737 87.4271 838.425 87.1667 838.425 86.8125C838.425 86.6667 838.498 86.4896 838.644 86.2812L850.675 72.2812L838.581 57.6875C838.435 57.5208 838.362 57.3438 838.362 57.1562C838.362 56.6771 838.758 56.3021 839.55 56.0312C840.112 55.8438 840.644 55.75 841.144 55.75C842.415 55.75 843.3 56.0417 843.8 56.625L853.737 68.625L864.3 56.375C864.654 55.9583 865.227 55.75 866.019 55.75C866.435 55.75 866.862 55.8229 867.3 55.9688C867.862 56.1771 868.144 56.4479 868.144 56.7812C868.144 56.9271 868.092 57.0521 867.987 57.1562L855.894 71.2188L867.987 85.8125C868.133 85.9792 868.206 86.1562 868.206 86.3438C868.206 86.8021 867.842 87.1667 867.112 87.4375C866.508 87.6458 865.925 87.75 865.362 87.75C864.133 87.75 863.269 87.4583 862.769 86.875L852.831 74.875L842.269 87.125C841.915 87.5417 841.29 87.75 840.394 87.75Z" fill="#4D0071"/>
</g>
</g>
<defs>
<filter id="filter0_d_101_46" x="569.172" y="54.6328" width="303.034" height="49.8359" filterUnits="userSpaceOnUse" color-interpolation-filters="sRGB">
<feFlood flood-opacity="0" result="BackgroundImageFix"/>
<feColorMatrix in="SourceAlpha" type="matrix" values="0 0 0 0 0 0 0 0 0 0 0 0 0 0 0 0 0 0 127 0" result="hardAlpha"/>
<feOffset dy="4"/>
<feGaussianBlur stdDeviation="2"/>
<feComposite in2="hardAlpha" operator="out"/>
<feColorMatrix type="matrix" values="0 0 0 0 0 0 0 0 0 0 0 0 0 0 0 0 0 0 0.25 0"/>
<feBlend mode="normal" in2="BackgroundImageFix" result="effect1_dropShadow_101_46"/>
<feBlend mode="normal" in="SourceGraphic" in2="effect1_dropShadow_101_46" result="shape"/>
</filter>
<clipPath id="clip0_101_46">
<rect width="1440" height="148" fill="white"/>
</clipPath>
</defs>
</svg>
