<svg width="348" height="89" viewBox="0 0 348 89" fill="none" xmlns="http://www.w3.org/2000/svg">
<rect width="200" height="83" fill="#D9D9D9"/>
<rect x="200" width="148" height="83" fill="#5BDF0A"/>
<g filter="url(#filter0_d_101_51)">
<path d="M42.9453 25.6328C47.8047 25.6328 51.6484 27.2188 54.4766 30.3906C57.3047 33.5625 58.7188 37.4609 58.7188 42.0859C58.7188 46.7266 57.3047 50.6328 54.4766 53.8047C51.6484 56.9766 47.8047 58.5625 42.9453 58.5625C38.0859 58.5625 34.2422 56.9766 31.4141 53.8047C28.5859 50.6328 27.1719 46.7266 27.1719 42.0859C27.1719 37.4609 28.5859 33.5625 31.4141 30.3906C34.2422 27.2188 38.0859 25.6328 42.9453 25.6328ZM42.9453 27.7656C39.0078 27.7656 36.0312 29.2734 34.0156 32.2891C32 35.2891 30.9922 38.5547 30.9922 42.0859C30.9922 45.6172 32 48.8906 34.0156 51.9062C36.0312 54.9219 39.0078 56.4297 42.9453 56.4297C46.8828 56.4297 49.8594 54.9219 51.875 51.9062C53.8906 48.8906 54.8984 45.6172 54.8984 42.0859C54.8984 38.5547 53.8906 35.2891 51.875 32.2891C49.8594 29.2734 46.8828 27.7656 42.9453 27.7656ZM66.5563 58.5625C65.275 58.5625 64.6344 58.2031 64.6344 57.4844V35.6406C64.6344 34.9219 65.275 34.5625 66.5563 34.5625C67.8219 34.5625 68.4547 34.9219 68.4547 35.6406V38.2422C69.5797 35.7891 71.6266 34.5625 74.5953 34.5625C76.3453 34.5625 77.8609 34.9844 79.1422 35.8281C79.4547 36.0312 79.6109 36.2812 79.6109 36.5781C79.6109 36.9375 79.4 37.2734 78.9781 37.5859C78.65 37.8203 78.2828 37.9375 77.8766 37.9375C77.3297 37.9375 76.8219 37.7422 76.3531 37.3516C75.8844 36.9453 75.1422 36.7422 74.1266 36.7422C71.8922 36.7422 70.3844 37.8125 69.6031 39.9531C68.8375 42.0938 68.4547 44.0938 68.4547 45.9531V57.4844C68.4547 58.2031 67.8219 58.5625 66.5563 58.5625ZM105.612 57.2969C105.612 60.8438 104.409 63.4219 102.003 65.0312C99.6125 66.6562 96.8078 67.4688 93.5891 67.4688C91.7609 67.4688 89.7609 67.1562 87.5891 66.5312C85.4328 65.9062 83.8234 64.8125 82.7609 63.25C82.6672 63.1094 82.6203 62.9766 82.6203 62.8516C82.6203 62.1641 83.2687 61.8203 84.5656 61.8203C85.4094 61.8203 85.9953 62.0469 86.3234 62.5C87.0422 63.5469 88.1281 64.2812 89.5812 64.7031C91.0344 65.125 92.3781 65.3359 93.6125 65.3359C99.0812 65.3359 101.816 62.6562 101.816 57.2969V55.0703C100.097 57.3828 97.5344 58.5391 94.1281 58.5391C90.55 58.5391 87.7297 57.3906 85.6672 55.0938C83.6203 52.7812 82.5969 49.9297 82.5969 46.5391C82.5969 43.1328 83.6203 40.2812 85.6672 37.9844C87.7297 35.6875 90.55 34.5391 94.1281 34.5391C97.4719 34.5391 100.034 35.7266 101.816 38.1016L101.839 35.6172C101.839 34.8984 102.472 34.5391 103.737 34.5391C104.987 34.5391 105.612 34.8984 105.612 35.6172V57.2969ZM94.1281 56.4062C96.7375 56.4062 98.675 55.3281 99.9406 53.1719C101.206 51.0156 101.839 48.8047 101.839 46.5391C101.839 44.2578 101.206 42.0469 99.9406 39.9062C98.675 37.75 96.7375 36.6719 94.1281 36.6719C91.5344 36.6719 89.5969 37.75 88.3156 39.9062C87.05 42.0469 86.4172 44.2578 86.4172 46.5391C86.4172 48.8047 87.05 51.0156 88.3156 53.1719C89.5969 55.3281 91.5344 56.4062 94.1281 56.4062ZM133.794 58.5625C131.966 58.5625 130.755 57.4453 130.161 55.2109C128.192 57.4453 125.286 58.5625 121.442 58.5625C119.083 58.5625 117.059 58.0859 115.372 57.1328C113.2 55.9297 112.114 54.1719 112.114 51.8594C112.114 50.1875 112.583 48.8438 113.52 47.8281C114.473 46.7969 115.723 46.1406 117.27 45.8594C118.833 45.5625 120.372 45.4141 121.887 45.4141C122.387 45.4141 122.95 45.4297 123.575 45.4609C124.216 45.4922 124.864 45.5078 125.52 45.5078C127.473 45.5078 128.864 45.25 129.692 44.7344V42.3672C129.692 38.5859 127.505 36.6953 123.13 36.6953C121.489 36.6953 120.036 37.1094 118.77 37.9375C117.333 38.875 116.614 40 116.614 41.3125C116.614 42.0312 115.981 42.3906 114.716 42.3906C113.45 42.3906 112.817 42.0312 112.817 41.3125C112.848 39.4844 113.864 37.8984 115.864 36.5547C117.848 35.2266 120.27 34.5625 123.13 34.5625C125.552 34.5625 127.887 35.1562 130.137 36.3438C132.387 37.5312 133.512 39.5391 133.512 42.3672V52.6562C133.512 53.8125 133.661 54.7266 133.958 55.3984C134.239 55.9922 134.645 56.4453 135.177 56.7578C135.52 56.9609 135.692 57.2031 135.692 57.4844C135.692 58.2031 135.059 58.5625 133.794 58.5625ZM121.442 56.4297C123.286 56.4297 125.122 55.875 126.95 54.7656C128.778 53.6562 129.692 52.0625 129.692 49.9844V47.3125C128.677 47.5312 127.45 47.6406 126.012 47.6406C125.294 47.6406 124.575 47.625 123.856 47.5938C123.137 47.5469 122.419 47.5234 121.7 47.5234C120.762 47.5078 119.786 47.6016 118.77 47.8047C117.755 47.9922 116.989 48.5469 116.473 49.4688C116.083 50.1562 115.887 50.9297 115.887 51.7891C115.919 53.3047 116.473 54.4688 117.552 55.2812C118.52 56.0469 119.817 56.4297 121.442 56.4297ZM160.662 58.5859C159.397 58.5859 158.764 58.2266 158.764 57.5078V45.0859C158.764 43.0391 158.209 41.1406 157.1 39.3906C156.006 37.625 154.311 36.7422 152.014 36.7422C147.233 36.7422 144.842 39.75 144.842 45.7656V57.5078C144.842 58.2266 144.209 58.5859 142.944 58.5859C141.662 58.5859 141.022 58.2266 141.022 57.5078V35.6406C141.022 34.9219 141.662 34.5625 142.944 34.5625C144.209 34.5625 144.842 34.9219 144.842 35.6406V38.2891C146.233 35.7891 148.733 34.5391 152.342 34.5391C154.842 34.5234 157.17 35.4062 159.327 37.1875C161.498 38.9531 162.584 41.5859 162.584 45.0859V57.5078C162.584 58.2266 161.944 58.5859 160.662 58.5859ZM180.805 34.5625C184.414 34.5625 187.367 35.6719 189.664 37.8906C191.961 40.1094 193.109 43 193.109 46.5625C193.109 50.125 191.961 53.0156 189.664 55.2344C187.367 57.4531 184.414 58.5625 180.805 58.5625C177.195 58.5625 174.242 57.4531 171.945 55.2344C169.648 53.0156 168.5 50.125 168.5 46.5625C168.5 43 169.648 40.1094 171.945 37.8906C174.242 35.6719 177.195 34.5625 180.805 34.5625ZM180.805 36.6953C178.07 36.6953 175.969 37.7188 174.5 39.7656C173.047 41.8125 172.32 44.0781 172.32 46.5625C172.32 49.0469 173.047 51.3125 174.5 53.3594C175.969 55.4062 178.07 56.4297 180.805 56.4297C183.539 56.4297 185.633 55.4062 187.086 53.3594C188.555 51.3125 189.289 49.0469 189.289 46.5625C189.289 44.0781 188.555 41.8125 187.086 39.7656C185.633 37.7188 183.539 36.6953 180.805 36.6953Z" fill="black"/>
<path d="M244.9 58.75C243.212 58.75 242.369 58.2812 242.369 57.3438V40.6875C242.369 38.0417 241.775 35.5521 240.587 33.2188C239.4 30.8646 237.285 29.6875 234.244 29.6875C231.223 29.6875 229.129 30.875 227.962 33.25C226.796 35.6042 226.212 38.0833 226.212 40.6875V57.3438C226.212 58.2812 225.358 58.75 223.65 58.75C221.962 58.75 221.119 58.2812 221.119 57.3438V40.6875C221.119 38.0417 220.546 35.5521 219.4 33.2188C218.254 30.8646 216.15 29.6875 213.087 29.6875C210.067 29.6875 207.942 31.0104 206.712 33.6562C205.504 36.2812 204.9 38.9583 204.9 41.6875V57.3125C204.9 58.2708 204.056 58.75 202.369 58.75C200.66 58.75 199.806 58.2708 199.806 57.3125V28.1562C199.806 27.2188 200.66 26.75 202.369 26.75C204.056 26.75 204.9 27.2188 204.9 28.1562V31.5938C206.671 28.3646 209.733 26.75 214.087 26.75C218.379 26.75 221.692 28.4896 224.025 31.9688C226.108 28.4896 229.525 26.75 234.275 26.75C243.067 26.75 247.462 31.3958 247.462 40.6875V57.3438C247.462 58.2812 246.608 58.75 244.9 58.75ZM285.069 58.75C282.631 58.75 281.017 57.2604 280.225 54.2812C277.6 57.2604 273.725 58.75 268.6 58.75C265.454 58.75 262.756 58.1146 260.506 56.8438C257.61 55.2396 256.163 52.8958 256.163 49.8125C256.163 47.5833 256.788 45.7917 258.038 44.4375C259.308 43.0625 260.975 42.1875 263.038 41.8125C265.121 41.4167 267.173 41.2188 269.194 41.2188C269.86 41.2188 270.61 41.2396 271.444 41.2812C272.298 41.3229 273.163 41.3438 274.038 41.3438C276.642 41.3438 278.496 41 279.6 40.3125V37.1562C279.6 32.1146 276.683 29.5938 270.85 29.5938C268.663 29.5938 266.725 30.1458 265.038 31.25C263.121 32.5 262.163 34 262.163 35.75C262.163 36.7083 261.319 37.1875 259.631 37.1875C257.944 37.1875 257.1 36.7083 257.1 35.75C257.142 33.3125 258.496 31.1979 261.163 29.4062C263.808 27.6354 267.038 26.75 270.85 26.75C274.079 26.75 277.194 27.5417 280.194 29.125C283.194 30.7083 284.694 33.3854 284.694 37.1562V50.875C284.694 52.4167 284.892 53.6354 285.288 54.5312C285.663 55.3229 286.204 55.9271 286.913 56.3438C287.371 56.6146 287.6 56.9375 287.6 57.3125C287.6 58.2708 286.756 58.75 285.069 58.75ZM268.6 55.9062C271.058 55.9062 273.506 55.1667 275.944 53.6875C278.381 52.2083 279.6 50.0833 279.6 47.3125V43.75C278.246 44.0417 276.61 44.1875 274.694 44.1875C273.735 44.1875 272.777 44.1667 271.819 44.125C270.86 44.0625 269.902 44.0312 268.944 44.0312C267.694 44.0104 266.392 44.1354 265.038 44.4062C263.683 44.6562 262.663 45.3958 261.975 46.625C261.454 47.5417 261.194 48.5729 261.194 49.7188C261.235 51.7396 261.975 53.2917 263.413 54.375C264.704 55.3958 266.433 55.9062 268.6 55.9062ZM294.394 58.75C294.123 58.75 293.779 58.6979 293.362 58.5938C292.737 58.4271 292.425 58.1667 292.425 57.8125C292.425 57.6667 292.498 57.4896 292.644 57.2812L304.675 43.2812L292.581 28.6875C292.435 28.5208 292.362 28.3438 292.362 28.1562C292.362 27.6771 292.758 27.3021 293.55 27.0312C294.112 26.8438 294.644 26.75 295.144 26.75C296.415 26.75 297.3 27.0417 297.8 27.625L307.737 39.625L318.3 27.375C318.654 26.9583 319.227 26.75 320.019 26.75C320.435 26.75 320.862 26.8229 321.3 26.9688C321.862 27.1771 322.144 27.4479 322.144 27.7812C322.144 27.9271 322.092 28.0521 321.987 28.1562L309.894 42.2188L321.987 56.8125C322.133 56.9792 322.206 57.1562 322.206 57.3438C322.206 57.8021 321.842 58.1667 321.112 58.4375C320.508 58.6458 319.925 58.75 319.362 58.75C318.133 58.75 317.269 58.4583 316.769 57.875L306.831 45.875L296.269 58.125C295.915 58.5417 295.29 58.75 294.394 58.75Z" fill="#4D0071"/>
</g>
<defs>
<filter id="filter0_d_101_51" x="23.1719" y="25.6328" width="303.034" height="49.8359" filterUnits="userSpaceOnUse" color-interpolation-filters="sRGB">
<feFlood flood-opacity="0" result="BackgroundImageFix"/>
<feColorMatrix in="SourceAlpha" type="matrix" values="0 0 0 0 0 0 0 0 0 0 0 0 0 0 0 0 0 0 127 0" result="hardAlpha"/>
<feOffset dy="4"/>
<feGaussianBlur stdDeviation="2"/>
<feComposite in2="hardAlpha" operator="out"/>
<feColorMatrix type="matrix" values="0 0 0 0 0 0 0 0 0 0 0 0 0 0 0 0 0 0 0.25 0"/>
<feBlend mode="normal" in2="BackgroundImageFix" result="effect1_dropShadow_101_51"/>
<feBlend mode="normal" in="SourceGraphic" in2="effect1_dropShadow_101_51" result="shape"/>
</filter>
</defs>
</svg>
